<?xml version="1.0" encoding="UTF-8"?>
<!DOCTYPE svg PUBLIC "-//W3C//DTD SVG 1.1//EN" "http://www.w3.org/Graphics/SVG/1.1/DTD/svg11.dtd">
<!-- Creator: CorelDRAW 2020 (64-Bit) -->
<svg xmlns="http://www.w3.org/2000/svg" xml:space="preserve" width="294.28mm" height="142.76mm" version="1.1" style="shape-rendering:geometricPrecision; text-rendering:geometricPrecision; image-rendering:optimizeQuality; fill-rule:evenodd; clip-rule:evenodd"
viewBox="0 0 29427.98 14276"
 xmlns:xlink="http://www.w3.org/1999/xlink"
 xmlns:xodm="http://www.corel.com/coreldraw/odm/2003">
 <defs>
  <style type="text/css">
   <![CDATA[
    .fil17 {fill:none}
    .fil5 {fill:#03E7DC}
    .fil4 {fill:#0F5EB8}
    .fil16 {fill:#116FD0}
    .fil9 {fill:#12B5FE}
    .fil6 {fill:#12B6FE}
    .fil3 {fill:#1392FE}
    .fil13 {fill:#13B7DC}
    .fil8 {fill:#13B9DC}
    .fil10 {fill:#13BADC}
    .fil0 {fill:#1592FF}
    .fil12 {fill:#15ADF6}
    .fil15 {fill:#15ADF6}
    .fil2 {fill:#2C3863}
    .fil1 {fill:#99FFFF}
    .fil11 {fill:#C8A36A}
    .fil7 {fill:#FEFFFE}
    .fil14 {fill:white}
   ]]>
  </style>
   <clipPath id="id0">
    <path d="M-0.36 2.2l29427.98 0 0 14276.05 -29427.98 0 0 -14276.05z"/>
   </clipPath>
 </defs>
 <g id="Layer_x0020_1">
  <metadata id="CorelCorpID_0Corel-Layer"/>
  <g>
  </g>
  <g style="clip-path:url(#id0)">
   <g>
    <rect class="fil0" x="-0.36" y="-2209.66" width="29427.98" height="22070.96"/>
    <path class="fil1" d="M-0.36 6546.86c551.29,99.18 1056.77,397.51 1617.94,516.88 718.46,152.84 1592.03,60.88 2324.72,11.94l0 0c99.23,-111.62 730.69,-320.54 920.34,-383.52 368.23,-122.27 701.18,-211.08 1103.34,-219.58l217.27 2.8c485.08,-170.18 1851.72,54.34 2334.77,232.54 751.81,277.36 1322.71,493.35 2227.05,466.39 73.07,-46.82 1170.05,-472.44 1319.43,-521.02 495.27,-161.1 1036.63,-194.49 1595.87,-170.47l1032.08 -47.39c78.16,-108.75 98.85,-215.11 187.38,-276.11 141.93,-97.76 195.91,-21.47 329.06,-185.42 68.74,-84.65 130.62,-207.96 193.16,-323.78 119.05,-220.52 30.48,-172.5 98.63,-343.1l160.51 4.7 74.7 -177.69c103.62,-19.15 106.9,68.88 228.8,115.09l-75.53 197.31c121.71,79.6 33.71,-15.48 86.57,105.85 -100.96,147.09 -494.2,462.92 -355.4,938.21 826.69,87.2 1737.62,689.93 2456.75,662.94 477.21,-85.73 936.45,-454.16 1483.12,-581.57 619.32,-144.33 1254.47,-123.03 1884.11,-8.01 300.21,-2.5 737.73,-111.03 1104.16,-125.77 391.44,-15.72 772.35,5.08 1153.85,60.61 488,71.06 1631.83,592.89 1886.29,571.49 571.86,-203.93 895.82,-494.3 1592.01,-570.15 487.86,-53.16 1515.85,-56.15 1879.09,184.24l0 0 367.91 -86.27 0 -8807.67 -29427.98 0 0 8756.53z"/>
    <path class="fil2" d="M12699.21 14825.82c242.36,375.47 159.49,549.22 -23.71,887.35l4055.53 0c-99.47,-182.99 -461.92,-370.01 -295.2,-724.35 74.89,-159.19 410.64,-537.59 539.43,-598.28 33.99,-106.92 821.07,-853.53 890.1,-944.07 1161.47,-1523.3 -395.64,-3236.13 -1856.03,-2633.71 -538.63,222.19 -937.71,701.34 -989.78,1435.19 7.18,501.12 135.77,746.7 403,1088.89 213.31,273.16 572.08,132.57 553.24,-160.36 -12.67,-196.91 -504.79,-500.88 -278.76,-1143.89 292.42,-831.88 1507.37,-797.21 1707.43,53.61 31.88,135.57 29.23,296.86 -10.24,431.56 -45.46,155.14 -113.35,220.62 -176.03,316.31l-728.8 655.41c-106.26,119.48 -151.24,160.27 -266.35,258.02 -62.28,52.89 -76.61,82.03 -134.36,139.2 -49.22,48.73 -95.99,79.8 -148.36,126.34 -307.91,273.68 -353.51,477.36 -471.37,619.53 -190.19,-590.89 -891.08,-2422.44 -905.6,-2942.6 -17.06,-610.59 360.93,-1163.49 948.4,-1374.04 322.89,-115.72 272.41,-364.47 166.75,-478.11 -446.11,-479.79 -1541.13,570.18 -1814.17,1116.49 -338.51,677.31 -186.33,1289.03 -62.95,1949.59 80.69,432.01 152.24,868.17 228,1297.88 69.93,396.65 255.81,1062.64 -159.4,1193.35 8.15,-472.62 -154.27,-882.32 -433,-1215.84 -140.69,-168.33 -227.25,-205.88 -231.7,-275.44 -202.98,-125.09 -509.37,-460.09 -706.6,-636.47l-54.89 -43.59c-270.64,-314.49 -747.72,-620.73 -993.78,-943.32 -333.58,-437.32 -318.87,-1000.66 -4.49,-1459.29 227.6,-332.02 772.61,-652.81 1374.96,-481.99 394.12,111.78 476.62,267.03 610.27,349.65 126.35,102.49 625.34,1.58 393.01,-408.22 -85.26,-121.09 -723.67,-852.96 -1888.33,-567.79 -1496.25,366.34 -1915.29,2145.93 -1060.04,3188.01 476.19,580.23 1444.1,1336.71 1823.82,1924.98z"/>
    <path class="fil3" d="M13622.08 13204.32c134.31,-23.49 140.38,32.81 107.42,128.5l-110.29 7.42c-19.25,-56.29 -20.33,-87.06 2.87,-135.92zm-100.35 -1925.62c-194.75,159.12 -222.9,-237.16 1.53,-104.87l-1.53 104.87zm-568.7 -326.5c113.56,-81.66 256.87,-20.63 186.78,169.89 -160.84,63.15 -221.39,-13.62 -186.78,-169.89zm870.73 -671.58c126.6,478.38 -278.09,479.27 -393.01,408.22 -133.65,-82.62 -216.15,-237.87 -610.27,-349.65 -602.35,-170.82 -1147.36,149.97 -1374.96,481.99 -314.38,458.63 -329.09,1021.97 4.49,1459.29 92.53,121.31 148.05,144.4 237.92,242.16 94.57,102.89 171.44,141.67 251.04,228.92 95.84,105.04 167.37,138.03 252.68,227.51 55.6,58.3 64.15,77.8 123.14,127.86 50.47,42.81 85.91,66.79 129,116.87 147.25,-81.32 201.62,-595.31 161.36,-795.13 -114.66,-569.24 -582.47,-679.55 -732.86,-776.18 -99.71,-64.05 -166.04,-187.23 -138.55,-339.27 126.73,-700.95 1966.19,220.72 1662.42,1801.15 -36.66,190.69 -194.02,645.49 -190.88,789.49 4.45,69.56 91.01,107.11 231.7,275.44 278.73,333.52 441.15,743.22 433,1215.84 415.21,-130.71 229.33,-796.7 159.4,-1193.35 -75.76,-429.71 -147.31,-865.87 -228,-1297.88 -123.38,-660.56 -275.56,-1272.28 62.95,-1949.59 103.58,-207.25 202.29,-325.78 301.1,-498.39l-109.03 68.34c-20.67,-65.97 -24.02,8.94 -9.32,-114.17l-113.88 10.18c-90.22,-75.18 4.22,85.34 -11.1,-20.52l42.76 -103.95c-106.54,2.27 -28.85,35.85 -141.1,-15.18z"/>
    <path class="fil4" d="M12443.79 13223.79l54.89 43.59c197.23,176.38 503.62,511.38 706.6,636.47 -3.14,-144 154.22,-598.8 190.88,-789.49 303.77,-1580.43 -1535.69,-2502.1 -1662.42,-1801.15 -27.49,152.04 38.84,275.22 138.55,339.27 150.39,96.63 618.2,206.94 732.86,776.18 40.26,199.82 -14.11,713.81 -161.36,795.13z"/>
    <path class="fil4" d="M11854.62 15713.17l820.88 0c183.2,-338.13 266.07,-511.88 23.71,-887.35 -76.03,-117.8 -420.87,-537.2 -561.56,-657.68 -43.36,213.27 -183.26,492.18 -239.21,717.53 -68.99,277.85 -98.42,538.41 -43.82,827.5z"/>
    <path class="fil5" d="M21444.31 6563.85l0 38.57c436.22,-12.62 1278.77,520.05 1887.22,634.28 374.84,70.39 815.16,86.64 1204.83,52.92 430.01,-37.21 699.47,-170.91 1052.25,-219.44l0 0c-254.46,21.4 -1398.29,-500.43 -1886.29,-571.49 -381.5,-55.53 -762.41,-76.33 -1153.85,-60.61 -366.43,14.74 -803.95,123.27 -1104.16,125.77z"/>
    <path class="fil4" d="M16489.39 13489.48l728.8 -655.41c-29.6,-29.84 -10.12,-4.54 -33.62,-46.19l-56.35 -150.91c-97.29,-248.99 -401.37,-614.39 -583.71,-696.67 -218.61,-98.65 -590.99,140.37 -263.19,469.11 298.12,298.97 462.58,671.77 208.07,1080.07z"/>
    <path class="fil6" d="M25588.61 7070.18l0 0c663.09,94.93 1203.77,155.66 1900.08,76.35 367.06,-41.81 1333.6,-280.42 1571.02,-462.26 -363.24,-240.39 -1391.23,-237.4 -1879.09,-184.24 -696.19,75.85 -1020.15,366.22 -1592.01,570.15z"/>
    <g>
     <path class="fil7" d="M15775.27 5660.05c-115.94,-19.28 -181.03,-53.27 -236.92,-135.56 119.48,-8.41 198.86,26.51 236.92,135.56zm100.81 44.24c125.06,-95.75 159.3,-165.94 44.35,-240.77 -183.9,-108.67 -344.71,-249.11 -419.75,-156.5 -68.15,170.6 20.42,122.58 -98.63,343.1 -62.54,115.82 -124.42,239.13 -193.16,323.78 -133.15,163.95 -187.13,87.66 -329.06,185.42 -88.53,61 -109.22,167.36 -187.38,276.11l-116 216.26 -225.09 462.52c194.72,63.33 386.62,118.95 582.56,131.74 357.1,23.3 337.01,25.5 482.32,-210.32 87.39,-183.6 189.92,-324.53 204.09,-545.14 -103.77,-362.37 86.32,-636.29 255.75,-786.2l0 0z"/>
    </g>
    <path class="fil6" d="M18077.84 7153.3l-0.17 -0.01c671.04,12.93 1215.01,68.34 1870.64,-82.78 531.64,-122.54 1002.87,-380.71 1496,-468.09l0 -38.57c-629.64,-115.02 -1264.79,-136.32 -1884.11,8.01 -546.67,127.41 -1005.15,495.72 -1482.36,581.44z"/>
    <path class="fil4" d="M16731.03 15713.17l368.39 0c-47.79,-95.66 -260.37,-208.37 -273.1,-593.78 -4.37,-132.2 100.94,-605.85 148.94,-728.85 -128.79,60.69 -464.54,439.09 -539.43,598.28 -166.72,354.34 195.73,541.36 295.2,724.35z"/>
    <path class="fil5" d="M15416.24 7035.63c927.51,314.21 1619.77,362.91 2661.43,117.66l0.17 0.01c-719.14,26.99 -1630.82,-575.61 -2457.51,-662.81 -14.17,220.61 -116.7,361.54 -204.09,545.14z"/>
    <path class="fil5" d="M10745.07 7174.31c-904.34,26.96 -1475.24,-189.03 -2227.05,-466.39 -483.05,-178.2 -1849.69,-402.72 -2334.77,-232.54 473.89,60.33 709.31,15.99 1171.19,183.51 336.51,122.04 628.76,275.56 955,405.21 533.17,211.91 1904.94,376.58 2435.63,110.21z"/>
    <path class="fil4" d="M14071.09 7604.91c-59.7,167.55 -198.74,336.29 -194.45,522.9 78.25,88.58 564.58,370.23 735.94,351.86 131.39,-100.35 492.5,-830.37 537.6,-974.26 -387.94,53.52 -668.66,106.4 -1079.09,99.5z"/>
    <path class="fil6" d="M10745.07 7174.31c517.53,-6.23 1115.48,-59.47 1593.63,-209.56 222.13,-69.72 429.91,-150.59 650.81,-229.37 203.71,-72.64 495.33,-125.2 673.05,-217.9l-2.19 -34.66c-559.24,-24.02 -1100.6,9.37 -1595.87,170.47 -164.3,53.43 -1251.17,452.15 -1319.43,521.02z"/>
    <path class="fil8" d="M3942.3 7075.68c-732.69,48.94 -1606.26,140.9 -2324.72,-11.94 -561.17,-119.37 -1066.65,-417.7 -1617.94,-516.88l0 57.8c1783.73,360.83 1826.36,971.51 3942.66,471.02z"/>
    <path class="fil9" d="M3942.3 7075.68c362.74,-90.65 630.88,-193.3 978.58,-318 171.27,-61.41 332.95,-117.27 498.82,-161.53 184.08,-49.11 395.78,-55.87 546.28,-123.57 -402.16,8.5 -771.49,67.54 -1139.73,189.83 -189.64,62.97 -720.23,295.03 -883.95,413.27z"/>
    <path class="fil10" d="M13660.37 6482.82l2.19 34.66c436.41,-3.39 540.92,59.86 913.89,134.21l116 -216.26 -1032.08 47.39z"/>
    <path class="fil11" d="M15661.19 5311.72l227.97 134.71 71.6 -198.37c-6.94,-99.08 -121.25,-133.18 -224.87,-114.03l-74.7 177.69z"/>
    <path class="fil12" d="M13619.21 13340.24l110.29 -7.42c32.96,-95.69 26.89,-151.99 -107.42,-128.5 -23.2,48.86 -22.12,79.63 -2.87,135.92z"/>
    <path class="fil13" d="M29059.71 6684.27c83.21,86.71 254.15,90.75 367.91,127.17l0 -213.44 -367.91 86.27z"/>
    <path class="fil11" d="M15775.27 5660.05c-38.06,-109.05 -117.44,-143.97 -236.92,-135.56 55.89,82.29 120.98,116.28 236.92,135.56z"/>
    <circle class="fil14" cx="15038.42" cy="14186.25" r="126.15"/>
    <circle class="fil14" cx="14681.59" cy="13871.92" r="74.3"/>
    <circle class="fil14" cx="14567.28" cy="12899.91" r="83.28"/>
    <circle class="fil14" cx="11395.29" cy="10328.44" r="83.28"/>
    <circle class="fil15" cx="12175.3" cy="10131.22" r="62.87"/>
    <circle class="fil15" cx="14369.94" cy="11977.24" r="97.16"/>
    <circle class="fil15" cx="13050.98" cy="11030.53" r="133.48"/>
    <circle class="fil16" cx="13421.2" cy="11251.39" r="77.56"/>
    <circle class="fil16" cx="15549.74" cy="9382.5" r="77.56"/>
    <circle class="fil16" cx="16187.4" cy="10382.67" r="77.56"/>
    <circle class="fil16" cx="15454.88" cy="13720.39" r="77.56"/>
    <circle class="fil16" cx="14282.55" cy="9348.9" r="77.56"/>
    <circle class="fil15" cx="14647.44" cy="8905.87" r="133.48"/>
   </g>
  </g>
  <polygon class="fil17" points="-0.36,2.2 29427.62,2.2 29427.62,14278.25 -0.36,14278.25 "/>
 </g>
</svg>
